<?xml version="1.0" encoding="UTF-8" standalone="no"?>
<!-- Created with Inkscape (http://www.inkscape.org/) -->

<svg
   xmlns:dc="http://purl.org/dc/elements/1.1/"
   xmlns:cc="http://creativecommons.org/ns#"
   xmlns:rdf="http://www.w3.org/1999/02/22-rdf-syntax-ns#"
   xmlns:svg="http://www.w3.org/2000/svg"
   xmlns="http://www.w3.org/2000/svg"
   xmlns:sodipodi="http://sodipodi.sourceforge.net/DTD/sodipodi-0.dtd"
   xmlns:inkscape="http://www.inkscape.org/namespaces/inkscape"
   width="480.00894"
   height="497.58069"
   id="svg2"
   version="1.1"
   inkscape:version="0.48.4 r9939"
   sodipodi:docname="angle_alpha.svg"
   inkscape:export-filename="/home/paszoste/msc/graphics/angle_alpha.png"
   inkscape:export-xdpi="90"
   inkscape:export-ydpi="90">
  <sodipodi:namedview
     id="base"
     pagecolor="#ffffff"
     bordercolor="#666666"
     borderopacity="1.0"
     inkscape:pageopacity="0.0"
     inkscape:pageshadow="2"
     inkscape:zoom="0.49497475"
     inkscape:cx="25.490726"
     inkscape:cy="268.4395"
     inkscape:document-units="px"
     inkscape:current-layer="g3663"
     showgrid="false"
     inkscape:window-width="1366"
     inkscape:window-height="719"
     inkscape:window-x="0"
     inkscape:window-y="25"
     inkscape:window-maximized="1"
     fit-margin-top="0"
     fit-margin-left="0"
     fit-margin-right="0"
     fit-margin-bottom="0"
     showguides="true"
     inkscape:guide-bbox="true" />
  <defs
     id="defs4">
    <marker
       inkscape:stockid="Arrow1Lend"
       orient="auto"
       refY="0"
       refX="0"
       id="Arrow1Lend"
       style="overflow:visible">
      <path
         inkscape:connector-curvature="0"
         id="path3774"
         d="M 0,0 5,-5 -12.5,0 5,5 0,0 z"
         style="fill-rule:evenodd;stroke:#000000;stroke-width:1pt"
         transform="matrix(-0.8,0,0,-0.8,-10,0)" />
    </marker>
  </defs>
  <metadata
     id="metadata7">
    <rdf:RDF>
      <cc:Work
         rdf:about="">
        <dc:format>image/svg+xml</dc:format>
        <dc:type
           rdf:resource="http://purl.org/dc/dcmitype/StillImage" />
        <dc:title></dc:title>
      </cc:Work>
    </rdf:RDF>
  </metadata>
  <g
     transform="translate(-98.5625,-155.42857)"
     inkscape:label="Layer 1"
     inkscape:groupmode="layer"
     id="layer1">
    <rect
       y="350.42859"
       x="98.571426"
       height="14.285714"
       width="171.42857"
       id="rect3506"
       style="fill:#d7e3f4;fill-opacity:1;stroke:none" />
    <rect
       y="351.14285"
       x="257.28571"
       height="209.28572"
       width="30.357143"
       id="rect3508"
       style="fill:#d7e3f4;fill-opacity:1;stroke:none" />
    <path
       id="rect3455-5"
       d="m 98.57143,155.42857 0,198.1875 166.53125,0 0,206.8125 313.46875,0 0,-144.34375 -157.46875,0 0,-260.65625 -322.53125,0 z"
       style="fill:#d7e3f4;fill-opacity:1;stroke:none"
       inkscape:connector-curvature="0" />
    <rect
       style="fill:#ffb380;stroke:#e64f01;stroke-width:4;stroke-miterlimit:4;stroke-opacity:1;stroke-dasharray:none;stroke-dashoffset:0"
       id="rect2985"
       width="151.42856"
       height="187.14285"
       x="100.57143"
       y="371.28571" />
    <rect
       style="fill:#ffaaaa;fill-opacity:1;stroke:#e61e3e;stroke-width:4;stroke-miterlimit:4;stroke-opacity:1;stroke-dasharray:none;stroke-dashoffset:0"
       id="rect2987"
       width="147.14285"
       height="245.71428"
       x="429.42859"
       y="157.42857" />
    <path
       style="fill:none;stroke:#000000;stroke-width:1px;stroke-linecap:butt;stroke-linejoin:miter;stroke-opacity:1;marker-start:none;marker-end:url(#Arrow1Lend)"
       d="M 175.76654,468.49401 509.11688,279.59549"
       id="path3765"
       inkscape:connector-curvature="0" />
    <path
       sodipodi:nodetypes="cc"
       style="fill:none;stroke:#000000;stroke-width:1px;stroke-linecap:butt;stroke-linejoin:miter;stroke-opacity:1;marker-end:url(#Arrow1Lend)"
       d="m 173.57143,468.79075 337.36693,0"
       id="path4575"
       inkscape:connector-curvature="0" />
    <path
       sodipodi:type="arc"
       style="fill:none;stroke:#000000;stroke-width:1.20433867;stroke-miterlimit:4;stroke-opacity:1;stroke-dasharray:none;stroke-dashoffset:0"
       id="path4759"
       sodipodi:cx="212.85715"
       sodipodi:cy="348.79074"
       sodipodi:rx="36.42857"
       sodipodi:ry="36.42857"
       d="m 226.15143,314.87463 c 18.73135,7.34222 27.96406,28.47904 20.62183,47.21039 -2.37154,6.05022 -6.31833,11.35593 -11.43115,15.36697"
       sodipodi:start="5.0859584"
       sodipodi:end="7.1887591"
       transform="matrix(0.83033124,0,0,0.83033124,79.867781,155.26194)"
       sodipodi:open="true" />
    <g
       transform="translate(2.5253818,84.347738)"
       id="g4773">
      <g
         style="font-style:normal;font-variant:normal;font-weight:normal;font-stretch:normal;letter-spacing:normal;word-spacing:normal;text-anchor:start;fill:none;stroke:#000000;stroke-linecap:butt;stroke-linejoin:miter;stroke-miterlimit:10.43299961;stroke-opacity:1;stroke-dasharray:none;stroke-dashoffset:0"
         id="content"
         transform="matrix(1.0629921,0,0,-1.0629921,-186.02362,789.27165)"
         xml:space="preserve"
         stroke-miterlimit="10.433"
         font-style="normal"
         font-variant="normal"
         font-weight="normal"
         font-stretch="normal"
         font-size-adjust="none"
         letter-spacing="normal"
         word-spacing="normal"><path
           style="fill:#000000;stroke-width:0"
           inkscape:connector-curvature="0"
           d="m 479.29,417.96 -0.01,0.37 -0.01,0.35 -0.02,0.35 -0.02,0.34 -0.06,0.65 -0.09,0.63 -0.11,0.59 -0.14,0.57 -0.15,0.54 -0.18,0.51 -0.19,0.49 -0.21,0.45 -0.23,0.44 -0.25,0.4 -0.26,0.38 -0.27,0.36 -0.29,0.33 -0.3,0.31 -0.31,0.29 -0.31,0.26 -0.33,0.24 -0.34,0.22 -0.34,0.2 -0.35,0.18 -0.35,0.16 -0.36,0.14 -0.35,0.12 -0.36,0.11 -0.37,0.09 -0.36,0.06 -0.36,0.06 -0.35,0.04 -0.35,0.02 -0.35,0 -0.05,-1.09 c 4.94,0 4.94,-6.53 4.94,-10.41 0,-1.84 0,-4.73 0.09,-5.57 h 0 c -4.37,-3.85 -8.22,-4.39 -10.2,-4.39 -3,0 -4.49,2.25 -4.49,5.43 0,2.44 1.3,7.82 2.89,10.36 2.33,3.64 5.04,4.58 6.77,4.58 l 0.05,1.09 c -6.82,0 -13.39,-7.12 -13.39,-14.14 0,-4.64 2.98,-8.42 8.06,-8.42 3.14,0 6.73,1.14 10.51,4.19 0.66,-2.64 2.3,-4.19 4.54,-4.19 2.64,0 4.18,2.74 4.18,3.53 0,0.36 -0.29,0.5 -0.59,0.5 -0.36,0 -0.5,-0.14 -0.66,-0.5 -0.89,-2.43 -2.68,-2.43 -2.78,-2.43 -1.54,0 -1.54,3.89 -1.54,5.07 0,1.05 0,1.16 0.5,1.75 4.68,5.88 5.73,11.66 5.73,11.71 0,0.11 -0.06,0.5 -0.61,0.5 -0.5,0 -0.5,-0.14 -0.75,-1.05 -0.89,-3.14 -2.53,-6.92 -4.87,-9.86 z"
           id="path4776" /></g>    </g>
    <g
       id="g4806"
       transform="translate(33.335034,3.0304577)">
      <g
         word-spacing="normal"
         letter-spacing="normal"
         font-size-adjust="none"
         font-stretch="normal"
         font-weight="normal"
         font-variant="normal"
         font-style="normal"
         stroke-miterlimit="10.433"
         xml:space="preserve"
         transform="matrix(1.0629921,0,0,-1.0629921,-186.02362,789.27165)"
         id="g4808"
         style="font-style:normal;font-variant:normal;font-weight:normal;font-stretch:normal;letter-spacing:normal;word-spacing:normal;text-anchor:start;fill:none;stroke:#000000;stroke-linecap:butt;stroke-linejoin:miter;stroke-miterlimit:10.43299961;stroke-opacity:1;stroke-dasharray:none;stroke-dashoffset:0"><path
           id="path4810"
           d="m 480.35,435.84 -0.07,-0.06 -0.07,-0.07 -0.07,-0.07 -0.09,-0.07 -0.08,-0.08 -0.09,-0.08 -0.09,-0.09 -0.09,-0.08 -0.1,-0.09 -0.1,-0.1 -0.19,-0.19 -0.2,-0.19 -0.19,-0.21 -0.09,-0.1 -0.09,-0.1 -0.09,-0.1 -0.08,-0.11 -0.08,-0.1 -0.08,-0.1 -0.07,-0.1 -0.06,-0.1 -0.06,-0.1 -0.05,-0.1 -0.05,-0.1 -0.04,-0.09 -0.03,-0.09 -0.02,-0.1 -0.02,-0.08 0,-0.09 c 0,-0.5 0.5,-1 1,-1 0.45,0 0.7,0.36 0.95,0.66 0.59,0.75 1.74,2.14 3.94,3.23 0.34,0.21 0.84,0.46 0.84,1.05 0,0.5 -0.34,0.75 -0.7,1 -1.09,0.75 -1.64,1.64 -2.05,2.83 -0.09,0.45 -0.29,1.11 -0.98,1.11 -0.71,0 -1,-0.66 -1,-1.05 0,-0.25 0.39,-1.84 1.19,-2.89 h -16.79 c -0.84,0 -1.75,0 -1.75,-1 0,-1 0.91,-1 1.75,-1 z"
           inkscape:connector-curvature="0"
           style="fill:#000000;stroke-width:0" /><path
           id="path4812"
           d="m 478.83,424.73 0,0.12 -0.01,0.13 0,0.12 -0.01,0.11 0,0.12 -0.01,0.11 -0.02,0.11 -0.01,0.1 -0.03,0.21 -0.04,0.19 -0.04,0.18 -0.05,0.18 -0.05,0.16 -0.06,0.16 -0.06,0.15 -0.07,0.13 -0.07,0.13 -0.07,0.12 -0.08,0.12 -0.08,0.1 -0.08,0.1 -0.09,0.09 -0.09,0.08 -0.09,0.07 -0.09,0.07 -0.09,0.06 -0.09,0.05 -0.09,0.05 -0.09,0.04 -0.1,0.03 -0.09,0.03 -0.09,0.03 -0.09,0.01 -0.09,0.02 -0.08,0 -0.09,0 c -1.25,0 -2.44,-1.29 -2.44,-2.39 0,-0.64 0.25,-0.93 0.8,-1.48 1.05,-1 1.69,-2.3 1.69,-4.09 0,-2.1 -3.03,-13.5 -8.86,-13.5 -2.55,0 -3.69,1.75 -3.69,4.32 0,2.8 1.34,6.44 2.89,10.57 0.35,0.86 0.59,1.54 0.59,2.5 0,2.23 -1.59,4.07 -4.09,4.07 -4.67,0 -6.58,-7.21 -6.58,-7.67 0,-0.5 0.5,-0.5 0.61,-0.5 0.5,0 0.55,0.11 0.8,0.91 1.44,5.03 3.58,6.17 5.03,6.17 0.39,0 1.25,0 1.25,-1.59 0,-1.25 -0.5,-2.6 -0.86,-3.49 -2.19,-5.78 -2.83,-8.08 -2.83,-10.22 0,-5.37 4.38,-6.17 6.67,-6.17 8.38,0 11.21,16.49 11.21,19.08 z"
           inkscape:connector-curvature="0"
           style="fill:#000000;stroke-width:0" /></g>    </g>
    <g
       transform="translate(35.355339,158.59395)"
       id="g4850">
      <g
         style="font-style:normal;font-variant:normal;font-weight:normal;font-stretch:normal;letter-spacing:normal;word-spacing:normal;text-anchor:start;fill:none;stroke:#000000;stroke-linecap:butt;stroke-linejoin:miter;stroke-miterlimit:10.43299961;stroke-opacity:1;stroke-dasharray:none;stroke-dashoffset:0"
         id="g4852"
         transform="matrix(1.0629921,0,0,-1.0629921,-186.02362,789.27165)"
         xml:space="preserve"
         stroke-miterlimit="10.433"
         font-style="normal"
         font-variant="normal"
         font-weight="normal"
         font-stretch="normal"
         font-size-adjust="none"
         letter-spacing="normal"
         word-spacing="normal"><path
           style="fill:#000000;stroke-width:0"
           inkscape:connector-curvature="0"
           d="m 481.67,435.84 -0.07,-0.06 -0.07,-0.07 -0.07,-0.07 -0.09,-0.07 -0.08,-0.08 -0.09,-0.08 -0.09,-0.09 -0.09,-0.08 -0.1,-0.09 -0.1,-0.1 -0.19,-0.19 -0.2,-0.19 -0.19,-0.21 -0.09,-0.1 -0.09,-0.1 -0.09,-0.1 -0.08,-0.11 -0.08,-0.1 -0.08,-0.1 -0.07,-0.1 -0.06,-0.1 -0.06,-0.1 -0.05,-0.1 -0.05,-0.1 -0.04,-0.09 -0.03,-0.09 -0.02,-0.1 -0.02,-0.08 0,-0.09 c 0,-0.5 0.5,-1 1,-1 0.45,0 0.7,0.36 0.95,0.66 0.6,0.75 1.74,2.14 3.94,3.23 0.34,0.21 0.84,0.46 0.84,1.05 0,0.5 -0.34,0.75 -0.7,1 -1.09,0.75 -1.64,1.64 -2.05,2.83 -0.09,0.45 -0.29,1.11 -0.98,1.11 -0.71,0 -1,-0.66 -1,-1.05 0,-0.25 0.39,-1.84 1.19,-2.89 h -16.79 c -0.84,0 -1.75,0 -1.75,-1 0,-1 0.91,-1 1.75,-1 z"
           id="path4854" /><path
           style="fill:#000000;stroke-width:0"
           inkscape:connector-curvature="0"
           d="m 472.16,421.25 0.03,0.13 0.03,0.15 0.04,0.16 0.05,0.18 0.05,0.19 0.06,0.21 0.07,0.22 0.07,0.22 0.08,0.23 0.09,0.24 0.09,0.25 0.11,0.24 0.11,0.25 0.12,0.25 0.13,0.25 0.13,0.25 0.15,0.24 0.16,0.24 0.16,0.23 0.18,0.22 0.19,0.22 0.2,0.2 0.21,0.19 0.22,0.18 0.23,0.16 0.24,0.14 0.13,0.07 0.13,0.06 0.13,0.05 0.14,0.05 0.14,0.05 0.14,0.04 0.15,0.03 0.15,0.03 0.15,0.02 0.15,0.02 0.16,0.01 0.16,0 c 0.25,0 1.44,0 2.49,-0.64 -1.39,-0.25 -2.39,-1.5 -2.39,-2.69 0,-0.79 0.54,-1.75 1.89,-1.75 1.09,0 2.69,0.89 2.69,2.89 0,2.6 -2.94,3.28 -4.63,3.28 -2.89,0 -4.64,-2.64 -5.23,-3.78 -1.25,3.28 -3.94,3.78 -5.38,3.78 -5.19,0 -8.03,-6.42 -8.03,-7.67 0,-0.5 0.5,-0.5 0.61,-0.5 0.39,0 0.55,0.11 0.64,0.55 1.69,5.28 4.98,6.53 6.67,6.53 0.96,0 2.69,-0.44 2.69,-3.33 0,-1.54 -0.84,-4.89 -2.69,-11.86 -0.8,-3.09 -2.53,-5.18 -4.73,-5.18 -0.3,0 -1.44,0 -2.49,0.65 1.25,0.24 2.35,1.28 2.35,2.69 0,1.34 -1.1,1.73 -1.85,1.73 -1.5,0 -2.75,-1.29 -2.75,-2.89 0,-2.28 2.5,-3.28 4.69,-3.28 3.3,0 5.08,3.49 5.24,3.78 0.59,-1.84 2.39,-3.78 5.37,-3.78 5.14,0 7.98,6.42 7.98,7.67 0,0.5 -0.45,0.5 -0.61,0.5 -0.43,0 -0.54,-0.2 -0.64,-0.54 -1.64,-5.33 -5.03,-6.53 -6.62,-6.53 -1.95,0 -2.75,1.59 -2.75,3.29 0,1.1 0.3,2.19 0.86,4.38 z"
           id="path4856" /></g>    </g>
    <flowRoot
       transform="translate(340.47722,300.98227)"
       style="font-size:24px;font-style:normal;font-weight:normal;line-height:125%;letter-spacing:0px;word-spacing:0px;fill:#e64f01;fill-opacity:1;stroke:none;font-family:Sans"
       id="flowRoot3429"
       xml:space="preserve"><flowRegion
         id="flowRegion3431"><rect
           style="fill:#e64f01;fill-opacity:1"
           y="206.0101"
           x="-226.27417"
           height="161.6244"
           width="201.02036"
           id="rect3433" /></flowRegion><flowPara
         style="font-size:36px;fill:#e64f01;fill-opacity:1"
         id="flowPara3435">A<flowSpan
   id="flowSpan3445"
   style="font-size:65.00091553%;baseline-shift:sub">1</flowSpan></flowPara></flowRoot>    <text
       sodipodi:linespacing="125%"
       id="text3447"
       y="198.85524"
       x="523.27423"
       style="font-size:24px;font-style:normal;font-weight:normal;line-height:125%;letter-spacing:0px;word-spacing:0px;fill:#e61e3e;fill-opacity:1;stroke:none;font-family:Sans"
       xml:space="preserve"><tspan
         style="font-size:36px;fill:#e61e3e;fill-opacity:1"
         y="198.85524"
         x="523.27423"
         id="tspan3449"
         sodipodi:role="line">A<tspan
   id="tspan3453"
   style="font-size:65.00091553%;baseline-shift:sub;fill:#e61e3e;fill-opacity:1">2</tspan></tspan></text>
    <text
       sodipodi:linespacing="125%"
       id="text3502"
       y="199.35715"
       x="124.42857"
       style="font-size:36px;font-style:normal;font-weight:normal;line-height:125%;letter-spacing:0px;word-spacing:0px;fill:#5f8dd3;fill-opacity:1;stroke:none;font-family:Sans"
       xml:space="preserve"><tspan
         y="199.35715"
         x="124.42857"
         id="tspan3504"
         sodipodi:role="line">S</tspan></text>
    <g
       id="g3546">
      <g
         word-spacing="normal"
         letter-spacing="normal"
         font-size-adjust="none"
         font-stretch="normal"
         font-weight="normal"
         font-variant="normal"
         font-style="normal"
         stroke-miterlimit="10.433"
         xml:space="preserve"
         transform="matrix(0.57714286,0,0,-0.57714286,-101,359.78906)"
         id="g3548"
         style="font-style:normal;font-variant:normal;font-weight:normal;font-stretch:normal;letter-spacing:normal;word-spacing:normal;text-anchor:start;fill:none;stroke:#000000;stroke-linecap:butt;stroke-linejoin:miter;stroke-miterlimit:10.43299961;stroke-opacity:1;stroke-dasharray:none;stroke-dashoffset:0"><g
           transform="translate(-96.534654,-116.33663)"
           id="g3663"><g
             style="font-style:normal;font-variant:normal;font-weight:normal;font-stretch:normal;letter-spacing:normal;word-spacing:normal;text-anchor:start;fill:none;stroke:#000000;stroke-linecap:butt;stroke-linejoin:miter;stroke-miterlimit:10.43299961;stroke-opacity:1;stroke-dasharray:none;stroke-dashoffset:0"
             id="g3665"
             transform="matrix(1.5453576,0,0,1.5453576,-178.13152,-979.38871)"
             xml:space="preserve"
             stroke-miterlimit="10.433"
             font-style="normal"
             font-variant="normal"
             font-weight="normal"
             font-stretch="normal"
             font-size-adjust="none"
             letter-spacing="normal"
             word-spacing="normal"><path
               style="fill:#000000;stroke-width:0"
               inkscape:connector-curvature="0"
               d="m 463.44,410.09 -0.04,-0.18 -0.05,-0.17 -0.04,-0.16 -0.05,-0.15 -0.04,-0.15 -0.05,-0.13 -0.04,-0.13 -0.05,-0.12 -0.06,-0.11 -0.06,-0.11 -0.06,-0.1 -0.07,-0.09 -0.08,-0.09 -0.09,-0.07 -0.09,-0.08 -0.11,-0.06 -0.11,-0.07 -0.12,-0.05 -0.14,-0.05 -0.15,-0.05 -0.16,-0.04 -0.09,-0.02 -0.08,-0.01 -0.1,-0.02 -0.1,-0.02 -0.1,-0.01 -0.1,-0.01 -0.11,-0.01 -0.11,-0.02 -0.12,-0.01 -0.12,-0.01 -0.13,0 -0.13,-0.01 -0.13,-0.01 -0.15,0 -0.14,-0.01 -0.15,0 -0.16,-0.01 -0.16,0 -0.16,0 -0.17,0 -0.18,0 -0.18,0 c -0.84,0 -1.39,0 -1.39,-0.96 0,-0.59 0.44,-0.59 1.39,-0.59 h 16.48 l -0.89,1.55 h -5.62 c -0.7,0 -0.8,0 -1.11,0.04 -0.48,0.05 -0.64,0.1 -0.64,0.5 0,0.14 0,0.25 0.25,1.14 l 6.83,27.36 c 0.43,1.74 0.54,1.89 2.68,1.89 h 5.33 c 4.89,0 9.02,-2.64 9.02,-9.22 0,-2.43 -1,-10.6 -5.24,-16.09 -1.43,-1.84 -5.37,-5.62 -11.5,-5.62 l 0.89,-1.55 c 10.36,0 20.19,10.51 20.19,21.42 0,7.03 -4.23,12.61 -11.72,12.61 h -16.73 c -0.95,0 -1.5,0 -1.5,-0.95 0,-0.6 0.45,-0.6 1.45,-0.6 0.64,0 1.55,-0.04 2.14,-0.09 0.8,-0.11 1.1,-0.25 1.1,-0.8 0,-0.2 -0.05,-0.36 -0.21,-0.95 z"
               id="path3667" /><path
               style="fill:#000000;stroke-width:0"
               inkscape:connector-curvature="0"
               d="m 546.27,422.5 0.14,0 0.15,0 0.14,0 0.07,0.01 0.08,0 0.07,0.01 0.07,0.01 0.07,0.01 0.07,0.01 0.07,0.01 0.06,0.02 0.07,0.02 0.06,0.02 0.06,0.02 0.06,0.03 0.06,0.03 0.05,0.04 0.05,0.03 0.05,0.05 0.04,0.04 0.04,0.05 0.02,0.03 0.02,0.03 0.01,0.02 0.02,0.03 0.01,0.03 0.02,0.04 0.01,0.03 0.01,0.04 0.01,0.03 0.01,0.04 0,0.04 0.01,0.04 0,0.04 0.01,0.04 0,0.04 0,0.05 c 0,1 -0.95,1 -1.64,1 h -29.84 c -0.71,0 -1.64,0 -1.64,-1 0,-0.98 0.93,-0.98 1.68,-0.98 z"
               id="path3669" /><path
               style="fill:#000000;stroke-width:0"
               inkscape:connector-curvature="0"
               d="m 546.32,412.82 0.07,0 0.06,0 0.14,0.01 0.14,0 0.07,0 0.07,0.01 0.07,0.01 0.07,0 0.06,0.01 0.07,0.02 0.07,0.01 0.06,0.02 0.07,0.02 0.06,0.02 0.06,0.02 0.06,0.03 0.05,0.03 0.05,0.04 0.05,0.04 0.05,0.04 0.04,0.05 0.02,0.02 0.02,0.03 0.02,0.02 0.02,0.03 0.01,0.03 0.02,0.03 0.01,0.03 0.02,0.03 0.01,0.04 0.01,0.03 0.01,0.04 0.01,0.04 0,0.04 0.01,0.04 0,0.04 0.01,0.04 0,0.05 0,0.04 c 0,1 -0.95,1 -1.69,1 h -29.75 c -0.75,0 -1.68,0 -1.68,-1 0,-1 0.93,-1 1.64,-1 z"
               id="path3671" /><path
               style="fill:#000000;stroke-width:0"
               inkscape:connector-curvature="0"
               d="m 596.73,440.82 0,0.02 0,0.02 0,0.01 0,0.02 0,0.02 -0.01,0.02 0,0.02 -0.01,0.02 -0.01,0.02 0,0.02 -0.01,0.02 -0.01,0.02 -0.01,0.02 -0.02,0.02 -0.01,0.02 -0.02,0.02 -0.01,0.02 -0.02,0.02 -0.02,0.02 -0.02,0.02 -0.02,0.01 -0.02,0.02 -0.03,0.01 -0.02,0.02 -0.03,0.01 -0.03,0.01 -0.01,0.01 -0.02,0 -0.02,0.01 -0.01,0 -0.02,0 -0.02,0.01 -0.02,0 -0.01,0 -0.02,0 -0.02,0 -0.02,0 -0.02,0 c -0.25,0 -0.31,-0.04 -0.91,-0.75 l -2.39,-2.84 c -1.3,2.34 -3.89,3.59 -7.12,3.59 -6.33,0 -12.3,-5.73 -12.3,-11.76 0,-4.03 2.64,-6.33 5.17,-7.06 l 5.33,-1.41 c 1.84,-0.44 4.59,-1.19 4.59,-5.28 0,-4.49 -4.09,-9.16 -8.97,-9.16 -3.18,0 -8.71,1.1 -8.71,7.27 0,1.2 0.24,2.39 0.29,2.69 0.05,0.2 0.1,0.25 0.1,0.35 0,0.5 -0.35,0.55 -0.6,0.55 -0.25,0 -0.34,-0.05 -0.5,-0.2 -0.2,-0.2 -2.98,-11.56 -2.98,-11.7 0,-0.3 0.25,-0.5 0.54,-0.5 0.25,0 0.3,0.04 0.89,0.75 l 2.46,2.82 c 2.14,-2.89 5.51,-3.57 8.4,-3.57 6.79,0 12.66,6.62 12.66,12.79 0,3.44 -1.69,5.14 -2.44,5.83 -1.14,1.16 -1.89,1.34 -6.32,2.5 -1.1,0.3 -2.9,0.8 -3.35,0.89 -1.34,0.45 -3.03,1.89 -3.03,4.53 0,4.05 3.98,8.28 8.72,8.28 4.14,0 7.17,-2.14 7.17,-7.73 0,-1.59 -0.2,-2.49 -0.2,-2.78 0,-0.05 0,-0.5 0.61,-0.5 0.5,0 0.54,0.15 0.73,1 z"
               id="path3673" /><path
               style="fill:#000000;stroke-width:0"
               inkscape:connector-curvature="0"
               d="m 618.68,418.65 -0.01,0.14 -0.01,0.13 -0.01,0.13 -0.03,0.13 -0.03,0.13 -0.03,0.13 -0.04,0.12 -0.05,0.12 -0.06,0.11 -0.05,0.12 -0.07,0.11 -0.07,0.11 -0.07,0.1 -0.08,0.1 -0.08,0.1 -0.09,0.09 -0.09,0.08 -0.1,0.09 -0.1,0.08 -0.1,0.07 -0.11,0.07 -0.11,0.06 -0.11,0.06 -0.12,0.05 -0.12,0.05 -0.12,0.04 -0.13,0.04 -0.12,0.03 -0.13,0.02 -0.14,0.02 -0.13,0.01 -0.14,0 c -1.43,0 -2.63,-1.18 -2.63,-2.64 0,-1.44 1.2,-2.64 2.63,-2.64 1.46,0 2.65,1.2 2.65,2.64 z"
               id="path3675" /><path
               style="fill:#000000;stroke-width:0"
               inkscape:connector-curvature="0"
               d="m 650.43,394.25 0,0.02 0,0.03 0,0.01 0,0.02 0,0.01 -0.01,0.02 0,0.01 -0.01,0.02 -0.01,0.02 -0.01,0.02 -0.01,0.02 -0.02,0.03 -0.01,0.02 -0.02,0.03 -0.02,0.03 -0.03,0.03 -0.02,0.03 -0.03,0.04 -0.02,0.02 -0.01,0.02 -0.02,0.02 -0.02,0.02 -0.02,0.02 -0.02,0.03 -0.02,0.02 -0.02,0.02 -0.02,0.03 -0.03,0.02 -0.02,0.03 -0.03,0.03 -0.03,0.03 -0.02,0.03 -0.03,0.03 -0.03,0.03 -0.03,0.03 -0.03,0.03 -0.04,0.04 -0.03,0.03 -0.04,0.04 -0.03,0.03 -0.04,0.04 -0.04,0.04 c -6.22,6.28 -7.81,15.69 -7.81,23.31 0,8.67 1.89,17.35 8.01,23.56 0.64,0.61 0.64,0.71 0.64,0.86 0,0.35 -0.18,0.49 -0.48,0.49 -0.5,0 -4.98,-3.38 -7.92,-9.7 -2.55,-5.49 -3.14,-11.02 -3.14,-15.21 0,-3.89 0.54,-9.9 3.28,-15.54 2.98,-6.13 7.28,-9.36 7.78,-9.36 0.3,0 0.48,0.14 0.48,0.5 z"
               id="path3677" /><path
               style="fill:#000000;stroke-width:0"
               inkscape:connector-curvature="0"
               d="m 699.41,436.39 0.04,0.16 0.04,0.16 0.03,0.15 0.04,0.14 0.04,0.14 0.04,0.13 0.05,0.12 0.04,0.11 0.06,0.11 0.05,0.11 0.06,0.09 0.07,0.09 0.07,0.09 0.08,0.08 0.09,0.07 0.1,0.07 0.11,0.06 0.12,0.06 0.13,0.05 0.14,0.05 0.15,0.04 0.08,0.02 0.09,0.02 0.09,0.02 0.09,0.02 0.1,0.01 0.09,0.02 0.11,0.01 0.11,0.01 0.11,0.02 0.11,0.01 0.12,0.01 0.13,0 0.13,0.01 0.13,0.01 0.14,0.01 0.14,0 0.15,0 0.15,0.01 0.16,0 0.16,0 0.17,0 0.17,0 c 1.14,0 1.59,0 1.59,1 0,0.55 -0.5,0.55 -1.34,0.55 h -6.58 c -1.3,0 -1.34,0 -1.94,-0.95 l -18.19,-28.39 -3.89,28.18 c -0.15,1.16 -0.25,1.16 -1.54,1.16 h -6.83 c -0.94,0 -1.49,0 -1.49,-0.95 0,-0.6 0.44,-0.6 1.44,-0.6 0.66,0 1.55,-0.04 2.14,-0.09 0.8,-0.11 1.1,-0.25 1.1,-0.8 0,-0.2 -0.05,-0.36 -0.19,-0.95 l -6.33,-25.36 c -0.5,-2 -1.34,-3.59 -5.39,-3.73 -0.25,0 -0.89,-0.05 -0.89,-0.96 0,-0.43 0.3,-0.59 0.7,-0.59 1.6,0 3.33,0.16 4.97,0.16 1.7,0 3.5,-0.16 5.14,-0.16 0.25,0 0.89,0 0.89,1 0,0.55 -0.54,0.55 -0.89,0.55 -2.84,0.04 -3.39,1.04 -3.39,2.18 0,0.35 0.05,0.6 0.2,1.14 l 6.77,27.16 h 0.06 l 4.28,-30.89 c 0.1,-0.59 0.14,-1.14 0.75,-1.14 0.55,0 0.85,0.55 1.1,0.89 l 20.12,31.55 h 0.05 l -7.13,-28.55 c -0.5,-1.95 -0.59,-2.34 -4.53,-2.34 -0.84,0 -1.39,0 -1.39,-0.96 0,-0.59 0.6,-0.59 0.75,-0.59 1.39,0 4.78,0.16 6.17,0.16 2.05,0 4.19,-0.16 6.24,-0.16 0.3,0 0.94,0 0.94,1 0,0.55 -0.46,0.55 -1.39,0.55 -1.85,0 -3.24,0 -3.24,0.89 0,0.2 0,0.29 0.25,1.2 z"
               id="path3679" /><path
               style="fill:#000000;stroke-width:0"
               inkscape:connector-curvature="0"
               d="m 738.56,417.65 h 13.91 c 0.68,0 1.63,0 1.63,1 0,1 -0.95,1 -1.63,1 h -13.91 v 13.96 c 0,0.68 0,1.64 -1,1.64 -0.99,0 -0.99,-0.96 -0.99,-1.64 v -13.96 h -13.95 c -0.7,0 -1.64,0 -1.64,-1 0,-1 0.94,-1 1.64,-1 h 13.95 v -13.94 c 0,-0.7 0,-1.65 0.99,-1.65 1,0 1,0.95 1,1.65 z"
               id="path3681" /><path
               style="fill:#000000;stroke-width:0"
               inkscape:connector-curvature="0"
               d="m 810.73,446.36 -0.01,-0.02 -0.02,-0.01 -0.03,-0.03 -0.04,-0.04 -0.05,-0.03 -0.04,-0.05 -0.05,-0.04 -0.06,-0.05 -0.05,-0.06 -0.06,-0.05 -0.06,-0.06 -0.06,-0.06 -0.07,-0.06 -0.06,-0.07 -0.07,-0.06 -0.13,-0.14 -0.12,-0.14 -0.06,-0.07 -0.06,-0.07 -0.06,-0.07 -0.05,-0.07 -0.05,-0.07 -0.05,-0.07 -0.04,-0.07 -0.04,-0.07 -0.03,-0.06 -0.03,-0.06 -0.02,-0.06 -0.02,-0.06 0,-0.03 -0.01,-0.03 0,-0.02 0,-0.03 c 0,-0.5 0.42,-0.87 0.87,-0.87 0.4,0 0.6,0.23 0.8,0.51 0.88,1.02 1.95,1.75 2.86,2.16 0.49,0.22 0.88,0.39 0.88,0.95 0,0.45 -0.35,0.66 -0.66,0.83 -1.16,0.7 -1.47,1.58 -1.64,2.03 -0.08,0.2 -0.28,0.72 -0.87,0.72 -0.25,0 -0.83,-0.2 -0.83,-0.86 0,-0.5 0.51,-1.47 0.83,-1.89 h -12.52 c -0.55,0 -1.39,0 -1.39,-0.83 0,-0.87 0.81,-0.87 1.39,-0.87 z"
               id="path3683" /><path
               style="fill:#000000;stroke-width:0"
               inkscape:connector-curvature="0"
               d="m 810.37,438.42 0,0.12 -0.01,0.12 0,0.12 -0.01,0.11 -0.01,0.11 -0.01,0.11 -0.02,0.1 -0.01,0.1 -0.02,0.1 -0.02,0.09 -0.02,0.09 -0.03,0.09 -0.02,0.08 -0.03,0.08 -0.02,0.07 -0.03,0.08 -0.03,0.07 -0.03,0.07 -0.03,0.06 -0.04,0.06 -0.03,0.06 -0.04,0.06 -0.03,0.05 -0.04,0.06 -0.03,0.05 -0.04,0.04 -0.08,0.09 -0.08,0.08 -0.08,0.07 -0.08,0.06 -0.08,0.05 -0.07,0.05 -0.08,0.04 -0.08,0.04 -0.07,0.02 -0.07,0.03 -0.06,0.02 -0.06,0.01 -0.06,0.02 -0.05,0 -0.05,0.01 -0.03,0 -0.04,0.01 -0.02,0 -0.01,0 c -0.91,0 -1.88,-0.96 -1.88,-1.86 0,-0.58 0.35,-0.86 0.6,-1.08 0.59,-0.48 1.28,-1.39 1.28,-2.78 0,-1.56 -2.3,-9.06 -6.44,-9.06 -2.83,0 -2.83,2.51 -2.83,3.11 0,1.59 0.63,3.54 1.92,6.78 0.28,0.73 0.49,1.26 0.49,1.86 0,1.81 -1.53,2.98 -3.31,2.98 -3.49,0 -5.05,-4.76 -5.05,-5.33 0,-0.45 0.48,-0.45 0.59,-0.45 0.49,0 0.52,0.17 0.63,0.56 0.83,2.86 2.33,4.25 3.72,4.25 0.59,0 0.87,-0.39 0.87,-1.22 0,-0.79 -0.28,-1.53 -0.62,-2.32 -1.5,-3.88 -1.88,-5.38 -1.88,-6.63 0,-3.45 2.72,-4.56 5.36,-4.56 5.86,0 8.3,10.14 8.3,13 z"
               id="path3685" /><path
               style="fill:#000000;stroke-width:0"
               inkscape:connector-curvature="0"
               d="m 820.78,434.48 0,0.12 -0.01,0.11 -0.02,0.11 -0.02,0.11 -0.02,0.1 -0.03,0.1 -0.04,0.1 -0.04,0.09 -0.04,0.09 -0.05,0.09 -0.05,0.09 -0.06,0.08 -0.06,0.07 -0.06,0.08 -0.07,0.07 -0.07,0.07 -0.07,0.06 -0.08,0.06 -0.07,0.06 -0.08,0.05 -0.08,0.05 -0.09,0.04 -0.08,0.04 -0.09,0.04 -0.08,0.03 -0.09,0.03 -0.09,0.02 -0.09,0.02 -0.09,0.02 -0.09,0.01 -0.08,0 -0.09,0.01 c -1.14,0 -2.02,-0.94 -2.02,-1.99 0,-1.26 1.05,-2.03 1.99,-2.03 1.14,0 2.01,0.95 2.01,2 z"
               id="path3687" /><path
               style="fill:#000000;stroke-width:0"
               inkscape:connector-curvature="0"
               d="m 844.45,446.36 -0.02,-0.02 -0.01,-0.01 -0.04,-0.03 -0.04,-0.04 -0.04,-0.03 -0.05,-0.05 -0.05,-0.04 -0.05,-0.05 -0.06,-0.06 -0.06,-0.05 -0.06,-0.06 -0.06,-0.06 -0.06,-0.06 -0.07,-0.07 -0.06,-0.06 -0.13,-0.14 -0.13,-0.14 -0.06,-0.07 -0.05,-0.07 -0.06,-0.07 -0.05,-0.07 -0.05,-0.07 -0.05,-0.07 -0.04,-0.07 -0.04,-0.07 -0.03,-0.06 -0.03,-0.06 -0.02,-0.06 -0.02,-0.06 -0.01,-0.03 0,-0.03 0,-0.02 0,-0.03 c 0,-0.5 0.42,-0.87 0.87,-0.87 0.39,0 0.59,0.23 0.8,0.51 0.87,1.02 1.95,1.75 2.86,2.16 0.48,0.22 0.87,0.39 0.87,0.95 0,0.45 -0.34,0.66 -0.65,0.83 -1.16,0.7 -1.47,1.58 -1.65,2.03 -0.07,0.2 -0.28,0.72 -0.87,0.72 -0.25,0 -0.83,-0.2 -0.83,-0.86 0,-0.5 0.52,-1.47 0.83,-1.89 h -12.52 c -0.54,0 -1.39,0 -1.39,-0.83 0,-0.87 0.82,-0.87 1.39,-0.87 z"
               id="path3689" /><path
               style="fill:#000000;stroke-width:0"
               inkscape:connector-curvature="0"
               d="m 833.43,429.45 -0.04,-0.11 -0.04,-0.12 -0.04,-0.12 -0.05,-0.12 -0.05,-0.12 -0.06,-0.13 -0.06,-0.13 -0.07,-0.12 -0.07,-0.13 -0.08,-0.13 -0.08,-0.13 -0.08,-0.12 -0.09,-0.13 -0.09,-0.12 -0.1,-0.12 -0.1,-0.12 -0.11,-0.12 -0.11,-0.11 -0.11,-0.1 -0.12,-0.1 -0.12,-0.1 -0.13,-0.09 -0.13,-0.08 -0.13,-0.08 -0.14,-0.07 -0.14,-0.06 -0.15,-0.05 -0.15,-0.05 -0.15,-0.04 -0.16,-0.02 -0.16,-0.02 -0.16,0 c -0.11,0 -1.16,0 -1.89,0.48 1.44,0.45 1.53,1.72 1.53,1.92 0,0.77 -0.59,1.3 -1.39,1.3 -0.97,0 -1.98,-0.84 -1.98,-2.14 0,-1.74 1.95,-2.53 3.65,-2.53 1.61,0 3.03,1 3.91,2.47 0.83,-1.85 2.75,-2.47 4.14,-2.47 4.02,0 6.14,4.34 6.14,5.33 0,0.45 -0.45,0.45 -0.56,0.45 -0.49,0 -0.52,-0.17 -0.66,-0.59 -0.73,-2.41 -2.83,-4.22 -4.78,-4.22 -1.39,0 -2.12,0.93 -2.12,2.26 0,0.91 0.84,4.08 1.81,7.96 0.7,2.67 2.26,3.54 3.42,3.54 0.06,0 1.14,0 1.87,-0.48 -1.1,-0.31 -1.53,-1.3 -1.53,-1.92 0,-0.77 0.6,-1.29 1.39,-1.29 0.82,0 1.96,0.66 1.96,2.13 0,1.95 -2.24,2.53 -3.63,2.53 -1.73,0 -3.14,-1.14 -3.91,-2.47 -0.62,1.44 -2.21,2.47 -4.17,2.47 -3.9,0 -6.14,-4.28 -6.14,-5.33 0,-0.45 0.5,-0.45 0.6,-0.45 0.45,0 0.48,0.14 0.67,0.59 0.86,2.72 3.06,4.22 4.76,4.22 1.16,0 2.1,-0.62 2.1,-2.29 0,-0.71 -0.42,-2.44 -0.74,-3.63 z"
               id="path3691" /><polyline
               style="fill:#000000;fill-rule:nonzero;stroke-width:0"
               points="774,418 865.2,418 865.2,420.04 774,420.04 "
               id="polyline3693" /><path
               style="fill:#000000;stroke-width:0"
               inkscape:connector-curvature="0"
               d="m 780.77,413.82 0,0.05 0,0.05 0,0.05 -0.01,0.06 0,0.05 0,0.06 0,0.05 -0.01,0.06 0,0.06 -0.01,0.05 -0.01,0.06 -0.01,0.06 -0.01,0.05 -0.01,0.06 -0.02,0.05 -0.02,0.05 -0.02,0.05 -0.02,0.05 -0.03,0.05 -0.03,0.05 -0.03,0.04 -0.04,0.04 -0.04,0.04 -0.02,0.01 -0.02,0.02 -0.02,0.02 -0.03,0.01 -0.02,0.02 -0.03,0.01 -0.02,0.01 -0.03,0.01 -0.03,0.01 -0.03,0.01 -0.03,0.01 -0.03,0.01 -0.04,0.01 -0.03,0 -0.03,0 -0.04,0.01 -0.04,0 -0.04,0 c -0.87,0 -0.87,-0.81 -0.87,-1.36 v -32.14 c 0,-0.52 0,-1.36 0.84,-1.36 0.88,0 0.88,0.81 0.88,1.36 z"
               id="path3695" /><path
               style="fill:#000000;stroke-width:0"
               inkscape:connector-curvature="0"
               d="m 804.85,409.63 -0.01,-0.01 -0.02,-0.01 -0.03,-0.03 -0.04,-0.04 -0.04,-0.04 -0.05,-0.04 -0.05,-0.05 -0.05,-0.05 -0.06,-0.05 -0.06,-0.05 -0.06,-0.06 -0.06,-0.06 -0.07,-0.07 -0.06,-0.06 -0.07,-0.07 -0.12,-0.13 -0.13,-0.14 -0.06,-0.07 -0.06,-0.07 -0.05,-0.07 -0.06,-0.08 -0.05,-0.06 -0.04,-0.07 -0.05,-0.07 -0.03,-0.07 -0.04,-0.06 -0.03,-0.06 -0.02,-0.07 -0.01,-0.05 -0.01,-0.03 0,-0.03 -0.01,-0.03 0,-0.02 c 0,-0.5 0.42,-0.88 0.88,-0.88 0.39,0 0.59,0.24 0.79,0.52 0.88,1.01 1.96,1.75 2.86,2.15 0.49,0.22 0.88,0.4 0.88,0.96 0,0.45 -0.35,0.65 -0.66,0.83 -1.15,0.7 -1.47,1.57 -1.64,2.03 -0.08,0.2 -0.28,0.72 -0.87,0.72 -0.25,0 -0.83,-0.21 -0.83,-0.86 0,-0.5 0.51,-1.47 0.83,-1.89 h -12.52 c -0.55,0 -1.39,0 -1.39,-0.83 0,-0.88 0.81,-0.88 1.39,-0.88 z"
               id="path3697" /><path
               style="fill:#000000;stroke-width:0"
               inkscape:connector-curvature="0"
               d="m 804.49,401.7 0,0.12 -0.01,0.12 0,0.12 -0.01,0.11 -0.01,0.11 -0.01,0.11 -0.02,0.1 -0.01,0.1 -0.02,0.1 -0.02,0.09 -0.02,0.09 -0.02,0.08 -0.03,0.09 -0.02,0.07 -0.03,0.08 -0.03,0.08 -0.03,0.07 -0.03,0.06 -0.03,0.07 -0.04,0.06 -0.03,0.06 -0.03,0.06 -0.04,0.05 -0.04,0.05 -0.03,0.05 -0.04,0.05 -0.08,0.09 -0.08,0.07 -0.08,0.07 -0.08,0.07 -0.07,0.05 -0.08,0.05 -0.08,0.04 -0.07,0.03 -0.08,0.03 -0.07,0.03 -0.06,0.02 -0.06,0.01 -0.06,0.01 -0.05,0.01 -0.05,0.01 -0.03,0 -0.03,0 -0.03,0 -0.01,0.01 c -0.91,0 -1.88,-0.96 -1.88,-1.86 0,-0.58 0.35,-0.86 0.6,-1.08 0.59,-0.49 1.28,-1.39 1.28,-2.78 0,-1.57 -2.3,-9.07 -6.44,-9.07 -2.83,0 -2.83,2.52 -2.83,3.11 0,1.6 0.63,3.55 1.93,6.78 0.28,0.74 0.48,1.27 0.48,1.86 0,1.82 -1.53,2.99 -3.31,2.99 -3.49,0 -5.05,-4.77 -5.05,-5.33 0,-0.45 0.48,-0.45 0.59,-0.45 0.49,0 0.52,0.17 0.63,0.56 0.83,2.86 2.33,4.25 3.72,4.25 0.59,0 0.87,-0.39 0.87,-1.22 0,-0.8 -0.28,-1.53 -0.62,-2.33 -1.5,-3.87 -1.88,-5.37 -1.88,-6.62 0,-3.46 2.72,-4.56 5.36,-4.56 5.86,0 8.3,10.14 8.3,13 z"
               id="path3699" /><path
               style="fill:#000000;stroke-width:0"
               inkscape:connector-curvature="0"
               d="m 813.76,413.82 0,0.05 0,0.05 0,0.05 0,0.06 0,0.05 0,0.06 -0.01,0.05 0,0.06 -0.01,0.06 0,0.05 -0.01,0.06 -0.01,0.06 -0.01,0.05 -0.02,0.06 -0.01,0.05 -0.02,0.05 -0.02,0.05 -0.03,0.05 -0.02,0.05 -0.03,0.05 -0.04,0.04 -0.03,0.04 -0.04,0.04 -0.02,0.01 -0.02,0.02 -0.03,0.02 -0.02,0.01 -0.03,0.02 -0.02,0.01 -0.03,0.01 -0.02,0.01 -0.03,0.01 -0.03,0.01 -0.03,0.01 -0.04,0.01 -0.03,0.01 -0.03,0 -0.04,0 -0.04,0.01 -0.03,0 -0.04,0 c -0.88,0 -0.88,-0.81 -0.88,-1.36 v -32.14 c 0,-0.52 0,-1.36 0.85,-1.36 0.87,0 0.87,0.81 0.87,1.36 z"
               id="path3701" /><path
               style="fill:#000000;stroke-width:0"
               inkscape:connector-curvature="0"
               d="m 825.64,413.82 0,0.05 0,0.05 0,0.05 0,0.06 0,0.05 0,0.06 -0.01,0.05 0,0.06 -0.01,0.06 0,0.05 -0.01,0.06 -0.01,0.06 -0.02,0.05 -0.01,0.06 -0.02,0.05 -0.01,0.05 -0.03,0.05 -0.02,0.05 -0.03,0.05 -0.03,0.05 -0.03,0.04 -0.03,0.04 -0.04,0.04 -0.02,0.01 -0.03,0.02 -0.02,0.02 -0.02,0.01 -0.03,0.02 -0.02,0.01 -0.03,0.01 -0.03,0.01 -0.02,0.01 -0.03,0.01 -0.04,0.01 -0.03,0.01 -0.03,0.01 -0.03,0 -0.04,0 -0.04,0.01 -0.03,0 -0.04,0 c -0.88,0 -0.88,-0.81 -0.88,-1.36 v -32.14 c 0,-0.52 0,-1.36 0.85,-1.36 0.87,0 0.87,0.81 0.87,1.36 z"
               id="path3703" /><path
               style="fill:#000000;stroke-width:0"
               inkscape:connector-curvature="0"
               d="m 850.45,409.63 -0.02,-0.01 -0.01,-0.01 -0.04,-0.03 -0.04,-0.04 -0.04,-0.04 -0.05,-0.04 -0.05,-0.05 -0.05,-0.05 -0.06,-0.05 -0.06,-0.05 -0.06,-0.06 -0.06,-0.06 -0.06,-0.07 -0.07,-0.06 -0.06,-0.07 -0.13,-0.13 -0.13,-0.14 -0.06,-0.07 -0.05,-0.07 -0.06,-0.07 -0.05,-0.08 -0.05,-0.06 -0.05,-0.07 -0.04,-0.07 -0.04,-0.07 -0.03,-0.06 -0.03,-0.06 -0.02,-0.07 -0.02,-0.05 -0.01,-0.03 0,-0.03 0,-0.03 0,-0.02 c 0,-0.5 0.42,-0.88 0.87,-0.88 0.39,0 0.59,0.24 0.8,0.52 0.87,1.01 1.95,1.75 2.86,2.15 0.48,0.22 0.87,0.4 0.87,0.96 0,0.45 -0.34,0.65 -0.65,0.83 -1.16,0.7 -1.47,1.57 -1.65,2.03 -0.07,0.2 -0.28,0.72 -0.87,0.72 -0.25,0 -0.83,-0.21 -0.83,-0.86 0,-0.5 0.52,-1.47 0.83,-1.89 h -12.52 c -0.54,0 -1.39,0 -1.39,-0.83 0,-0.88 0.82,-0.88 1.39,-0.88 z"
               id="path3705" /><path
               style="fill:#000000;stroke-width:0"
               inkscape:connector-curvature="0"
               d="m 839.42,392.73 -0.03,-0.11 -0.04,-0.12 -0.05,-0.12 -0.04,-0.12 -0.06,-0.13 -0.06,-0.12 -0.06,-0.13 -0.07,-0.13 -0.07,-0.12 -0.07,-0.13 -0.08,-0.13 -0.09,-0.13 -0.09,-0.12 -0.09,-0.13 -0.1,-0.12 -0.1,-0.11 -0.1,-0.12 -0.11,-0.11 -0.12,-0.1 -0.12,-0.11 -0.12,-0.09 -0.12,-0.09 -0.13,-0.09 -0.14,-0.07 -0.13,-0.07 -0.15,-0.06 -0.14,-0.06 -0.15,-0.04 -0.15,-0.04 -0.16,-0.02 -0.16,-0.02 -0.16,-0.01 c -0.11,0 -1.16,0 -1.89,0.49 1.43,0.45 1.53,1.72 1.53,1.92 0,0.77 -0.6,1.3 -1.39,1.3 -0.97,0 -1.99,-0.85 -1.99,-2.14 0,-1.74 1.96,-2.53 3.66,-2.53 1.61,0 3.03,1 3.9,2.46 0.83,-1.84 2.75,-2.46 4.14,-2.46 4.02,0 6.15,4.34 6.15,5.32 0,0.46 -0.46,0.46 -0.57,0.46 -0.48,0 -0.51,-0.18 -0.65,-0.6 -0.74,-2.4 -2.83,-4.22 -4.78,-4.22 -1.39,0 -2.13,0.94 -2.13,2.27 0,0.91 0.84,4.08 1.81,7.95 0.71,2.67 2.27,3.55 3.43,3.55 0.06,0 1.14,0 1.87,-0.48 -1.11,-0.32 -1.53,-1.3 -1.53,-1.93 0,-0.76 0.59,-1.28 1.39,-1.28 0.81,0 1.95,0.66 1.95,2.13 0,1.95 -2.23,2.53 -3.62,2.53 -1.74,0 -3.14,-1.14 -3.91,-2.47 -0.62,1.44 -2.22,2.47 -4.17,2.47 -3.91,0 -6.14,-4.28 -6.14,-5.33 0,-0.45 0.5,-0.45 0.59,-0.45 0.46,0 0.49,0.14 0.67,0.59 0.86,2.72 3.07,4.22 4.77,4.22 1.16,0 2.09,-0.63 2.09,-2.3 0,-0.7 -0.42,-2.43 -0.73,-3.62 z"
               id="path3707" /><path
               style="fill:#000000;stroke-width:0"
               inkscape:connector-curvature="0"
               d="m 859.96,413.82 0,0.05 0,0.05 0,0.05 0,0.06 -0.01,0.05 0,0.06 0,0.05 -0.01,0.06 0,0.06 -0.01,0.05 -0.01,0.06 -0.01,0.06 -0.01,0.05 -0.01,0.06 -0.02,0.05 -0.02,0.05 -0.02,0.05 -0.02,0.05 -0.03,0.05 -0.03,0.05 -0.03,0.04 -0.04,0.04 -0.04,0.04 -0.02,0.01 -0.02,0.02 -0.02,0.02 -0.03,0.01 -0.02,0.02 -0.03,0.01 -0.02,0.01 -0.03,0.01 -0.03,0.01 -0.03,0.01 -0.03,0.01 -0.03,0.01 -0.03,0.01 -0.04,0 -0.03,0 -0.04,0.01 -0.04,0 -0.04,0 c -0.87,0 -0.87,-0.81 -0.87,-1.36 v -32.14 c 0,-0.52 0,-1.36 0.84,-1.36 0.88,0 0.88,0.81 0.88,1.36 z"
               id="path3709" /><path
               style="fill:#000000;stroke-width:0"
               inkscape:connector-curvature="0"
               d="m 885.47,418.65 0,0.37 -0.01,0.39 -0.01,0.39 -0.01,0.41 -0.04,0.84 -0.06,0.88 -0.08,0.92 -0.11,0.95 -0.13,0.97 -0.17,1.01 -0.19,1.02 -0.23,1.03 -0.27,1.05 -0.31,1.06 -0.34,1.07 -0.4,1.07 -0.21,0.53 -0.22,0.53 -0.24,0.53 -0.25,0.53 c -2.99,6.12 -7.27,9.36 -7.77,9.36 -0.3,0 -0.5,-0.19 -0.5,-0.49 0,-0.15 0,-0.25 0.94,-1.15 4.89,-4.92 7.73,-12.85 7.73,-23.27 0,-8.51 -1.84,-17.28 -8.03,-23.56 -0.64,-0.59 -0.64,-0.7 -0.64,-0.84 0,-0.3 0.2,-0.5 0.5,-0.5 0.5,0 4.97,3.39 7.92,9.71 2.54,5.47 3.13,11 3.13,15.19 z"
               id="path3711" /></g></g></g>    </g>
  </g>
</svg>
